<svg xmlns="http://www.w3.org/2000/svg" xmlns:xlink="http://www.w3.org/1999/xlink" width="199pt" height="199pt" viewBox="0 0 199 199">
  <defs>
    <symbol overflow="visible" id="b">
      <path style="stroke:none" d="M4.016-7.875 4.672-3c.11.875-.281 1.36-1.203 1.484-.938.125-1.438-.234-1.547-1.109L1.266-7.5l-1.485.203.657 4.875c.109.813.406 1.36.953 1.703.593.422 1.375.578 2.25.469.859-.125 1.593-.484 2.062-1.047.406-.484.547-1.094.438-1.906l-.657-4.875zm0 0"/>
    </symbol>
    <symbol overflow="visible" id="c">
      <path style="stroke:none" d="M-.172-5.422.625-.094l1.39-.203-.421-2.828c-.125-.797.203-1.281 1.015-1.406.157-.016.25-.016.438-.016l-.219-1.406c-.078.016-.125.016-.156.031-.64.094-1.125.594-1.297 1.344l-.156-1.047zm0 0"/>
    </symbol>
    <symbol overflow="visible" id="d">
      <path style="stroke:none" d="M4.375-4.422c-.187-1.11-1.156-1.64-2.594-1.406C.438-5.61-.28-4.797-.109-3.703c.062.36.218.64.422.812.218.157.406.22.953.297l1.703.266c.375.031.5.125.547.344.046.328-.297.578-.938.687-.36.047-.656.031-.86-.062-.14-.079-.218-.188-.327-.453l-1.344.218C.266-.437 1.219.046 2.828-.219c.735-.125 1.281-.39 1.61-.765a1.73 1.73 0 0 0 .437-1.422q-.187-1.032-1.266-1.172l-1.828-.203c-.422-.063-.531-.125-.562-.344-.047-.297.234-.531.734-.625.64-.094 1 .063 1.094.547zm0 0"/>
    </symbol>
    <symbol overflow="visible" id="e">
      <path style="stroke:none" d="M5.094-1.172c-.297-.172-.39-.297-.438-.578l-.562-2.937C3.875-5.766 3.03-6.172 1.609-5.891S-.453-4.859-.28-3.625l1.312-.25c-.047-.562.157-.781.828-.906.516-.11.813.015.891.36.031.187-.016.359-.156.468-.172.125-.172.125-.828.375l-.516.203C.234-3.015-.172-2.359.016-1.406c.093.453.28.797.578 1 .375.265.86.36 1.328.281C2.516-.25 3-.609 3.39-1.187c.046.25.093.343.25.484L5.125-1zm-2.032-1.61c.141.782-.156 1.313-.843 1.438-.453.094-.797-.093-.875-.484-.078-.422.11-.64.64-.875l.47-.188c.327-.125.39-.171.53-.28zm0 0"/>
    </symbol>
    <symbol overflow="visible" id="f">
      <path style="stroke:none" d="m.344-6.047 2.953 5L4.719-1.5l-.5-5.781 1.718 5.39 1.438-.453-2.203-6.922-2.156.688.53 5.875-3-5.094-2.124.672L.625-.203l1.438-.453zm0 0"/>
    </symbol>
    <symbol overflow="visible" id="g">
      <path style="stroke:none" d="m.063-5.781-1.313.484L.625-.234 1.938-.72zm-.641-1.75-1.313.484.438 1.172 1.312-.484zm0 0"/>
    </symbol>
    <symbol overflow="visible" id="h">
      <path style="stroke:none" d="M-1.375-5.25.578-.234l1.313-.5L.719-3.75c-.235-.594.015-1.125.656-1.375.563-.219.953-.031 1.188.578l1.203 3.078 1.297-.515-1.313-3.36c-.437-1.11-1.281-1.484-2.344-1.078C.72-6.156.36-5.719.22-5.032l-.281-.718zm0 0"/>
    </symbol>
    <symbol overflow="visible" id="i">
      <path style="stroke:none" d="M.703-6.203c-1.531.625-2.062 2.016-1.39 3.656s2.03 2.25 3.562 1.625c1.516-.625 2.047-2.031 1.39-3.625C3.579-6.234 2.25-6.844.704-6.203m.422 1.047c.719-.297 1.438.156 1.828 1.125.39.937.188 1.765-.515 2.062-.704.282-1.422-.172-1.813-1.125-.39-.953-.203-1.781.5-2.062m0 0"/>
    </symbol>
    <symbol overflow="visible" id="j">
      <path style="stroke:none" d="M-1.531-5.203.579-.25l1.296-.547L.75-3.422c-.312-.75-.11-1.297.625-1.61.156-.062.25-.093.438-.124L1.25-6.47c-.062.032-.11.047-.156.063-.594.25-.922.86-.907 1.625l-.421-.969zm0 0"/>
    </symbol>
    <symbol overflow="visible" id="k">
      <path style="stroke:none" d="m.719.25 2.687.922c1.063.36 1.797.328 2.453-.047.766-.469 1.36-1.297 1.735-2.36.36-1.046.39-2.077.078-2.937-.281-.719-.844-1.172-1.906-1.531l-2.688-.922zm1.828-.703 1.547-4.5 1.265.437c1.079.36 1.36 1.282.829 2.813C5.672-.203 4.89.344 3.813-.016zm0 0"/>
    </symbol>
    <symbol overflow="visible" id="l">
      <path style="stroke:none" d="M2.266-4.937.594.188l1.344.437.89-2.719c.25-.765.766-1.031 1.547-.781.14.047.219.094.39.172l.438-1.36a2 2 0 0 1-.156-.046c-.61-.203-1.25.03-1.766.625L3.61-4.5zm0 0"/>
    </symbol>
    <symbol overflow="visible" id="m">
      <path style="stroke:none" d="M5.047 1.313c-.172-.297-.188-.454-.11-.72l.844-2.859c.313-1.062-.25-1.812-1.64-2.218-1.391-.407-2.297-.032-2.735 1.125l1.282.39c.234-.515.515-.625 1.171-.422.5.141.72.391.61.735-.047.187-.172.312-.344.344-.203.03-.203.03-.89-.063l-.579-.047c-1.062-.14-1.719.235-2 1.172Q.468-.593.703-.078c.203.406.61.703 1.063.844.578.172 1.187.078 1.797-.282-.079.266-.079.375-.016.563L5 1.484zM4-1.062c-.219.765-.734 1.093-1.406.89-.453-.125-.656-.453-.547-.844.125-.406.375-.515.969-.468l.484.046c.36.032.438.016.61 0zm0 0"/>
    </symbol>
    <symbol overflow="visible" id="n">
      <path style="stroke:none" d="M5.875-2c.219-1.297-.437-2.266-1.766-2.594-1.53-.39-2.703.39-3.156 2.172C.531-.703 1.172.547 2.703.938 3.984 1.25 5.063.672 5.5-.532L4.219-.858c-.36.625-.703.828-1.219.703-.687-.172-.937-.906-.687-1.922.124-.5.328-.922.578-1.203.218-.25.562-.328.953-.235.547.141.75.47.75 1.188zm0 0"/>
    </symbol>
    <symbol overflow="visible" id="o">
      <path style="stroke:none" d="M4.172-4.64c-1.594-.376-2.844.437-3.25 2.156C.516-.75 1.282.546 2.89.922c1.578.375 2.828-.469 3.218-2.14C6.516-3 5.813-4.267 4.172-4.642m-.25 1.093c.75.172 1.078.953.844 1.969-.235 1-.891 1.562-1.625 1.39-.75-.171-1.078-.968-.844-1.984.234-1 .875-1.547 1.625-1.375m0 0"/>
    </symbol>
    <symbol overflow="visible" id="p">
      <path style="stroke:none" d="M3.813-7.406c-.344-.547-.626-.828-1.094-1.047-.86-.39-1.828-.344-2.797.172-1.813.937-2.266 2.828-1.172 4.922C-.187-1.297 1.625-.58 3.422-1.516c1.594-.843 2.172-2.312 1.469-3.843l-1.282.672c.36.859.063 1.593-.75 2.03C1.83-2.124.813-2.64.08-4.03c-.75-1.438-.563-2.61.468-3.157.484-.25.922-.28 1.344-.093.218.093.406.25.656.531zm0 0"/>
    </symbol>
    <symbol overflow="visible" id="q">
      <path style="stroke:none" d="M4.422-2.766c-.328-.078-.453-.156-.594-.406L2.344-5.75C1.78-6.719.859-6.812-.391-6.094c-1.265.735-1.625 1.64-1.062 2.766L-.297-4c-.234-.516-.11-.797.5-1.14.453-.266.766-.235.953.077a.43.43 0 0 1 0 .47c-.125.171-.125.171-.656.609l-.437.375c-.829.687-1 1.422-.516 2.265.234.407.531.672.875.766.453.14.953.062 1.36-.172.515-.312.859-.812 1.03-1.484.126.218.204.297.391.375l1.313-.75zm-2.438-.859c.391.688.282 1.281-.328 1.64-.406.235-.781.157-.984-.202-.203-.36-.11-.626.328-1.016l.375-.344c.281-.219.313-.281.406-.422zm0 0"/>
    </symbol>
    <symbol overflow="visible" id="r">
      <path style="stroke:none" d="m-2.5-4.812 3 4.484 1.156-.781L-.14-3.797c-.375-.547-.296-1.078.204-1.406.39-.266.78-.188 1.015.156l2 2.984 1.172-.78-1.797-2.688c-.375-.547-.297-1.078.188-1.407.39-.265.78-.187 1.015.157l2 2.984 1.172-.781L4.703-7.75c-.578-.86-1.453-1.016-2.36-.422-.546.375-.827.844-.859 1.563-.5-.313-1.109-.235-1.656.14-.516.344-.734.735-.812 1.438l-.375-.563zm0 0"/>
    </symbol>
    <symbol overflow="visible" id="s">
      <path style="stroke:none" d="M2.75-4.984c-.062-.094-.094-.125-.14-.188-.329-.422-.688-.781-1.032-1-.89-.547-1.922-.484-2.766.172-1.234.953-1.312 2.422-.203 3.844 1.063 1.36 2.438 1.64 3.657.703.953-.75 1.297-1.89.906-2.922l-1.094.844c.11.453-.031.875-.437 1.187-.313.25-.657.313-1 .203-.235-.078-.422-.25-.75-.625zM-.656-3.516c-.438-.687-.406-1.234.078-1.609.281-.219.64-.281.969-.187.203.078.406.218.64.484zm0 0"/>
    </symbol>
    <symbol overflow="visible" id="t">
      <path style="stroke:none" d="m-3.156-6.875-1.047.906L.516-.437l1.047-.907zm0 0"/>
    </symbol>
    <symbol overflow="visible" id="u">
      <path style="stroke:none" d="M-2.078-5.89c-1.094 1.218-.953 2.702.36 3.89C-.392-.812 1.077-.86 2.187-2.094c1.078-1.203.953-2.703-.329-3.843C.5-7.157-.953-7.141-2.078-5.891m.86.734c.5-.563 1.359-.469 2.14.234.75.672.937 1.531.437 2.078-.515.578-1.375.485-2.14-.203s-.953-1.531-.438-2.11m0 0"/>
    </symbol>
    <symbol overflow="visible" id="v">
      <path style="stroke:none" d="m-4.172-3.953-.547 1.281 6.953 3 .547-1.281-2.593-1.11c.687-.078 1.14-.406 1.406-1.03.515-1.188-.219-2.548-1.703-3.188-.703-.313-1.485-.407-2.094-.282-.61.125-1.172.625-1.438 1.204-.265.625-.203 1.172.22 1.718zm1.469-.656C-2.422-5.266-1.61-5.406-.656-5 .25-4.61.688-3.89.406-3.25c-.281.64-1.094.797-2.015.406-.938-.406-1.375-1.125-1.094-1.765m0 0"/>
    </symbol>
    <symbol overflow="visible" id="w">
      <path style="stroke:none" d="M1.25-5.062c-.297.171-.453.187-.719.125l-2.875-.813c-1.062-.312-1.797.266-2.187 1.672-.39 1.39-.016 2.297 1.172 2.703L-3-2.672c-.516-.219-.625-.469-.437-1.125.14-.515.374-.75.718-.64.188.046.313.171.344.343.047.203.047.203-.031.907l-.063.546c-.11 1.079.281 1.735 1.203 2 .454.125.844.094 1.172-.062.407-.219.703-.625.828-1.063.172-.593.063-1.203-.28-1.78.265.062.359.062.546-.017l.422-1.453zm-2.375 1.078c.766.203 1.125.734.922 1.406-.125.453-.438.656-.828.547-.407-.11-.532-.36-.5-.969l.047-.484c.046-.36.03-.438-.016-.61zm0 0"/>
    </symbol>
    <symbol overflow="visible" id="x">
      <path style="stroke:none" d="M-5.11-1.828.14-.61l.313-1.375-2.781-.641c-.797-.187-1.11-.672-.922-1.469.031-.14.078-.234.14-.422l-1.39-.312c-.016.078-.016.125-.031.172-.14.625.14 1.25.765 1.687l-1.03-.234zm0 0"/>
    </symbol>
    <symbol overflow="visible" id="y">
      <path style="stroke:none" d="m.64-3.984.22-1.391-7.172-1.156-.22 1.39 2.548.407c-.578.265-.907.687-1.016 1.343-.203 1.266.86 2.422 2.469 2.672A3.77 3.77 0 0 0-.47-.953c.563-.281 1-.875 1.11-1.531.11-.657-.062-1.157-.546-1.594zm-4.437.468c.11-.687.86-1.046 1.875-.875.969.157 1.563.72 1.453 1.407-.11.703-.875 1.047-1.844.89-.984-.156-1.593-.719-1.484-1.422m0 0"/>
    </symbol>
    <symbol overflow="visible" id="z">
      <path style="stroke:none" d="M.406-5.203c-.265.219-.406.266-.687.234l-2.953-.328c-1.11-.125-1.735.563-1.907 2-.156 1.438.36 2.266 1.594 2.485l.14-1.329c-.53-.125-.671-.375-.593-1.062.047-.531.25-.781.61-.735a.44.44 0 0 1 .39.282c.063.187.063.187.094.89l.047.579c.062 1.062.547 1.64 1.515 1.75.453.046.844-.032 1.14-.25A1.78 1.78 0 0 0 .454-1.86c.063-.61-.14-1.188-.594-1.735.266.031.391.016.547-.094l.172-1.5zM-1.75-3.75c.797.078 1.203.531 1.125 1.234-.047.47-.328.735-.719.688-.422-.047-.593-.281-.64-.875l-.047-.5c-.016-.36-.047-.438-.11-.594zm0 0"/>
    </symbol>
    <symbol overflow="visible" id="A">
      <path style="stroke:none" d="m-7.047-2.719-.125 1.375 7.235.672.125-1.375zm0 0"/>
    </symbol>
    <symbol overflow="visible" id="B">
      <path style="stroke:none" d="M-5.25-2.39-5.328-1l5.375.328.078-1.39zm-1.875-.126-.078 1.391 1.25.078.078-1.39zm0 0"/>
    </symbol>
    <symbol overflow="visible" id="C">
      <path style="stroke:none" d="M-3.469-5.172c-1.125-.031-1.844.828-1.89 2.281-.063 1.36.593 2.22 1.703 2.266.36.016.656-.078.89-.266.188-.171.297-.343.47-.859l.593-1.625c.125-.36.234-.469.453-.453.328 0 .5.39.484 1.047-.015.36-.093.64-.218.812-.125.14-.235.203-.516.25l-.047 1.36C-.375-.344.281-1.187.343-2.812c.032-.75-.124-1.329-.421-1.75a1.74 1.74 0 0 0-1.313-.688c-.703-.031-1.156.313-1.406 1.016l-.562 1.75c-.141.375-.22.468-.438.468-.297-.015-.5-.343-.469-.843.016-.657.266-.97.75-.97zm0 0"/>
    </symbol>
    <symbol overflow="visible" id="D">
      <path style="stroke:none" d="M6.797-4.812c-.047-.625-.172-1.016-.484-1.422-.563-.75-1.454-1.157-2.547-1.157C1.719-7.39.438-5.92.438-3.562.438-1.235 1.703.233 3.734.233c1.797 0 3-1.046 3.094-2.718H5.375c-.094.922-.687 1.453-1.61 1.453-1.156 0-1.828-.938-1.828-2.516 0-1.61.704-2.562 1.876-2.562.53 0 .953.172 1.234.53.156.188.234.391.328.766zm0 0"/>
    </symbol>
    <symbol overflow="visible" id="E">
      <path style="stroke:none" d="M5.219-2.25c.015-.125.015-.172.015-.25a4.6 4.6 0 0 0-.203-1.406c-.36-.985-1.234-1.563-2.312-1.563-1.547 0-2.5 1.11-2.5 2.922 0 1.719.937 2.781 2.469 2.781 1.203 0 2.171-.687 2.484-1.75H3.797c-.172.422-.563.672-1.063.672-.406 0-.718-.156-.921-.468-.125-.188-.172-.438-.204-.938zM1.64-3.187c.078-.813.437-1.22 1.047-1.22.359 0 .671.173.874.454.126.187.188.406.22.765zm0 0"/>
    </symbol>
    <symbol overflow="visible" id="F">
      <path style="stroke:none" d="M1.969-5.39H.579v7.562h1.39V-.641c.343.594.828.875 1.5.875 1.297 0 2.25-1.218 2.25-2.843 0-.766-.219-1.516-.578-2.016-.36-.516-1.032-.844-1.672-.844-.672 0-1.156.282-1.5.89zm1.187 1.077c.703 0 1.172.688 1.172 1.72 0 .984-.484 1.671-1.172 1.671-.703 0-1.187-.687-1.187-1.687 0-1.016.484-1.703 1.187-1.703m0 0"/>
    </symbol>
    <symbol overflow="visible" id="G">
      <path style="stroke:none" d="M.672-7.266V0h1.39v-3.234c0-.61.454-1.047 1.079-1.047q.445 0 .703.328c.11.172.156.312.156.656V0h1.39v-3.61c0-.671-.171-1.14-.546-1.453-.313-.265-.75-.406-1.203-.406-.688 0-1.188.282-1.578.86v-2.657zm0 0"/>
    </symbol>
    <symbol overflow="visible" id="H">
      <path style="stroke:none" d="M5.39 0v-5.39H4v3.374c0 .641-.453 1.063-1.125 1.063-.61 0-.906-.328-.906-.969V-5.39H.579v3.75c0 1.188.655 1.875 1.796 1.875.734 0 1.219-.28 1.625-.875V0zm0 0"/>
    </symbol>
    <symbol overflow="visible" id="I">
      <path style="stroke:none" d="M5.031-3.656c-.015-1.125-.89-1.813-2.343-1.813-1.36 0-2.204.688-2.204 1.797 0 .36.11.656.297.875.188.188.36.281.875.438l1.657.53c.359.11.468.22.468.438 0 .329-.375.516-1.031.516-.36 0-.64-.062-.828-.187-.14-.11-.203-.22-.266-.5H.296C.329-.391 1.204.234 2.829.234c.75 0 1.313-.171 1.719-.484.39-.312.64-.812.64-1.344 0-.703-.359-1.14-1.062-1.36l-1.766-.5c-.39-.124-.484-.202-.484-.421 0-.297.313-.5.813-.5.656 0 .984.234 1 .719zm0 0"/>
    </symbol>
    <symbol overflow="visible" id="J">
      <path style="stroke:none" d="M1.469-2.469h1.828c.453 0 .812-.125 1.125-.406.344-.328.5-.687.5-1.234 0-1.094-.656-1.703-1.797-1.703H.719V0h.75zm0-.64v-2.047h1.547c.703 0 1.125.39 1.125 1.015 0 .641-.422 1.032-1.125 1.032zm0 0"/>
    </symbol>
    <symbol overflow="visible" id="K">
      <path style="stroke:none" d="M2.172-4.297C1-4.297.282-3.453.282-2.063c0 1.407.702 2.25 1.89 2.25 1.172 0 1.89-.843 1.89-2.218 0-1.438-.687-2.266-1.89-2.266m0 .61c.75 0 1.203.624 1.203 1.656 0 .984-.469 1.594-1.203 1.594S.984-1.047.984-2.062c0-1 .454-1.626 1.188-1.626m0 0"/>
    </symbol>
    <symbol overflow="visible" id="L">
      <path style="stroke:none" d="M1.219-5.812H.547V0h.672zm0 0"/>
    </symbol>
    <symbol overflow="visible" id="M">
      <path style="stroke:none" d="M4.266-.39c-.079.015-.11.015-.141.015-.234 0-.36-.125-.36-.328v-2.453c0-.735-.546-1.14-1.578-1.14-.609 0-1.109.171-1.374.484-.204.218-.282.453-.297.874h.672c.062-.515.359-.75.984-.75.594 0 .922.235.922.626v.171c0 .282-.156.407-.688.47-.937.124-1.078.155-1.344.25-.484.202-.734.577-.734 1.124C.328-.297.86.188 1.703.188c.531 0 .953-.188 1.422-.625.047.421.25.625.688.625.124 0 .234-.016.453-.079zm-1.172-.922c0 .218-.063.359-.25.546a1.52 1.52 0 0 1-1 .375c-.516 0-.813-.25-.813-.671 0-.438.297-.672 1-.766s.844-.125 1.063-.234zm0 0"/>
    </symbol>
    <symbol overflow="visible" id="N">
      <path style="stroke:none" d="M.547-4.172V0h.672v-2.172c0-.594.156-.984.468-1.219.204-.14.407-.187.876-.203v-.672c-.11-.015-.172-.03-.266-.03-.422 0-.75.25-1.14.874v-.75zm0 0"/>
    </symbol>
    <symbol overflow="visible" id="O">
      <path style="stroke:none" d="M1.188-4.172H.53V0h.657zm0-1.64H.53v.843h.657zm0 0"/>
    </symbol>
    <symbol overflow="visible" id="P">
      <path style="stroke:none" d="M3.484-3.016c0-.812-.546-1.28-1.515-1.28s-1.594.5-1.594 1.28c0 .657.328.954 1.328 1.204l.61.14c.468.125.656.281.656.594 0 .39-.39.64-.985.64-.343 0-.656-.093-.828-.265-.093-.125-.14-.25-.187-.547H.266C.296-.281.844.188 1.938.188c1.046 0 1.718-.516 1.718-1.329 0-.625-.344-.968-1.172-1.156l-.64-.156c-.547-.125-.782-.297-.782-.594 0-.39.344-.64.891-.64.531 0 .813.234.828.671zm0 0"/>
    </symbol>
    <symbol overflow="visible" id="Q">
      <path style="stroke:none" d="M.203 1.64a.6.6 0 0 0-.047.157c0 .14.157.14.25.14.188 0 .188-.03.25-.234.031-.156.625-2.547.64-2.578.423.703 1.188 1 1.985 1 2 0 3.125-1.531 3.125-2.844 0-.687-.312-1.062-.64-1.312.359-.313.765-.953.765-1.64C6.531-6.517 5.906-7 4.97-7 3.548-7 2.08-5.89 1.72-4.453zM4.72-4c-.25.172-.485.172-.625.172-.047 0-.485 0-.485-.078 0-.156.485-.156.625-.156.172 0 .297 0 .485.062m.328-.344c-.328-.078-.594-.078-.797-.078-.312 0-1.125 0-1.125.531 0 .422.61.422.953.422.172 0 .61 0 1.063-.187.078.14.109.344.109.515 0 .36-.25 1.563-.562 2.079-.313.5-.797.828-1.422.828-.938 0-1.703-.563-1.703-1.453 0-.204.046-.422.062-.516.156-.594.469-1.89.594-2.328.312-1.094 1.515-2.11 2.703-2.11.375 0 .594.188.594.563 0 .312-.235 1.344-.47 1.734m0 0"/>
    </symbol>
    <symbol overflow="visible" id="R">
      <path style="stroke:none" d="M4.469-1.89c-.078-.673-.563-2.61-2.11-2.61C.953-4.5.125-3.11.125-2.703c0 .156.14.156.219.156.11 0 .187 0 .25-.125.219-.64 1.047-.734 1.562-.734.547 0 1.203.125 1.547.61.266.39.344 1.218.344 1.624 0 .39-.016.469-.094.672-.265.813-.578 1.89-.578 2.25 0 .078 0 .36.25.36.234 0 .36-.376.406-.5.078-.235.328-1.126.453-2.157.016-.125.016-.14.047-.219.266-.75.75-1.906 1.453-3.187.063-.11.172-.297.172-.328 0-.14-.14-.14-.234-.14s-.14 0-.188.03c-.015.032-.546.891-1.265 2.5m0 0"/>
    </symbol>
    <symbol overflow="visible" id="S">
      <path style="stroke:none" d="M2.547-.672c-.422-.14-1.156-.36-1.156-1.437 0-1.36 1.078-2.828 1.984-3.391.219.297.547.297.75.297.266 0 1.078 0 1.078-.531 0-.391-.484-.422-.922-.422-.172 0-.36 0-.64.093a2 2 0 0 1 .062-.609c.016-.094.016-.094.016-.125 0-.203-.203-.219-.203-.219-.328 0-.328.594-.328.766 0 .063 0 .234.03.375-1.374.766-2.734 2.5-2.734 4.25 0 .5.141 1 .485 1.39.39.423.656.5 1.922.876.422.125.765.234.765.609 0 .031-.031.406-.36.406a1.66 1.66 0 0 1-.858-.25c-.079-.047-.079-.047-.141-.047-.11 0-.188.094-.188.172 0 .219.704.485 1.188.485C4.03 2.016 4.5 1.28 4.5.703c0-.797-.656-1-1.078-1.11zm1.187-5.015c.204-.11.344-.11.516-.11.297 0 .328 0 .484.063-.062.109-.078.125-.234.156-.14.016-.36.016-.375.016-.14 0-.312 0-.39-.125m0 0"/>
    </symbol>
    <symbol overflow="visible" id="T">
      <path style="stroke:none" d="M5.828-1.64c.938-1.079 1.156-2.204 1.156-2.235C6.984-4 6.828-4 6.734-4c-.187 0-.187.016-.25.203a5.2 5.2 0 0 1-.703 1.531c-.015-.484-.015-1.078-.562-1.609-.516-.531-1.157-.625-1.625-.625-2.031 0-3.14 1.563-3.14 2.86C.453-.548 1.28.077 2.515.077c.968 0 1.78-.406 2.312-.781.172.406.578.781 1.188.781.656 0 1-.453 1-.672 0-.14-.141-.14-.235-.14-.125 0-.172 0-.218.14-.125.282-.454.313-.47.313-.25 0-.265-1.156-.265-1.36M2.578-.282c-.562 0-.969-.266-.969-.922 0-.328.22-1.438.532-2.016a1.63 1.63 0 0 1 1.437-.922c.922 0 1.031 1.094 1.078 2.063.016.25.047.687.047.937 0 .11-.61.47-.86.579-.593.25-1.03.28-1.265.28m0 0"/>
    </symbol>
    <symbol overflow="visible" id="U">
      <path style="stroke:none" d="M4.11-1.078c-.235.453-.844.484-1.704.484-.625 0-1.562 0-1.562-.656 0-.203.14-.578.484-.844.422.219.953.219 1.14.219.266 0 1.016 0 1.016-.547 0-.406-.53-.406-.843-.406-.203 0-.735 0-1.266.25a.67.67 0 0 1-.125-.36c0-.546.688-.906 1.875-.906.281 0 .594 0 1.016.313.093.047.156.078.218.078.22 0 .454-.219.454-.453 0-.188-.157-.313-.532-.485-.437-.203-.812-.203-.968-.203C1.609-4.594.78-3.64.78-2.937A.84.84 0 0 0 1-2.36c-.406.343-.656.75-.656 1.234C.344-.437.89.172 2.234.172c1.625 0 2.141-.953 2.141-1.11 0-.093-.062-.171-.172-.171-.047 0-.094.03-.094.03M1.765-2.344c.359-.125.734-.125.843-.125.266 0 .297 0 .407.047-.032.125-.063.188-.547.188-.172 0-.422 0-.703-.11m0 0"/>
    </symbol>
    <symbol overflow="visible" id="V">
      <path style="stroke:none" d="M2.828-4.422C1.063-4.016.453-2.5.453-1.609c0 1.203.969 1.734 2.031 1.734 1.313 0 2.266-1.594 2.266-3.203 0-.89-.36-1.313-.766-1.703-.453-.422-1.328-1.235-1.328-1.594 0-.047.11-.312.469-.312.328 0 .578.171.75.296.188.157.484.375.703.375.313 0 .531-.28.531-.53 0-.298-.156-.329-.687-.438-.219-.047-.797-.172-1.063-.172-.53 0-1.125.375-1.125 1.093 0 .563.375 1.235.594 1.641m.219.36c.25.39.562.953.562 1.656 0 .437-.265 2.172-1.093 2.172-.11 0-.485-.032-.766-.282-.25-.234-.25-.609-.25-.734 0-.516.281-1.484.453-1.844.14-.265.438-.75 1.094-.969m0 0"/>
    </symbol>
    <symbol overflow="visible" id="W">
      <path style="stroke:none" d="M5.844-2.797c.047-.172.078-.297.078-.547 0-.922-.766-1.156-1.484-1.156-.204 0-.938 0-1.641.75-.14-.5-.688-.75-1.235-.75-.359 0-.656.203-.859.563-.25.406-.39.937-.39.984 0 .14.156.14.25.14.109 0 .14 0 .187-.046.031-.016.031-.047.094-.297.187-.797.422-.985.672-.985.109 0 .234.032.234.36 0 .172-.047.328-.14.734-.079.281-.173.672-.22.89L1.032-.75a3 3 0 0 0-.078.39c0 .204.156.438.469.438.516 0 .625-.453.703-.75l.281-1.125c.031-.125.281-1.156.313-1.187 0-.063.281-.5.61-.782.28-.218.608-.375 1.03-.375.25 0 .5.094.5.579 0 .25-.046.39-.078.578l-1.11 4.39c-.046.157-.046.219-.046.266 0 .312.266.437.469.437.11 0 .515-.015.672-.609zm0 0"/>
    </symbol>
    <symbol overflow="visible" id="X">
      <path style="stroke:none" d="M6.625-3.984c.11-.11.14-.125.14-.22 0-.155-.109-.218-.202-.218-.11 0-.125.031-.25.14L3.984-1.968c-.171-.578-.421-1.484-.78-2.015C2.843-4.47 2.03-4.5 1.608-4.5c-.937 0-1.14.656-1.14.766 0 .14.125.14.234.14.172 0 .188-.015.235-.156.093-.25.343-.39.515-.39.344 0 .906 1.124.922 1.171.297.563.39.922.656 1.938L.516 1.5c-.11.11-.141.14-.141.219 0 .11.078.218.219.218.078 0 .125-.046.125-.046C.844 1.797 1.875.734 3.156-.516c.297 1.079.516 1.532.719 1.891.266.453.797.64 1.672.64.937 0 1.125-.703 1.125-.765 0-.14-.125-.14-.234-.14-.172 0-.188 0-.235.14-.094.266-.344.406-.5.406-.344 0-.875-1.031-.89-1.093-.329-.625-.454-1.047-.704-2.032zm0 0"/>
    </symbol>
    <clipPath id="a">
      <path d="M.398 99.46V.36h198.204v198.203H.398zm0 0"/>
    </clipPath>
  </defs>
  <g clip-path="url(#a)">
    <path style="fill:none;stroke-width:7.08483;stroke-linecap:butt;stroke-linejoin:miter;stroke:#d8edfe;stroke-opacity:1;stroke-miterlimit:10" d="M1973.75 813.672s-203.477-166.836-325.703-229.61c-122.11-62.734-241.445-104.218-376.133-130.976-134.531-26.719-260.469-33.867-397.148-22.656-136.836 11.172-260.118 38.672-388.633 86.992-128.555 48.398-236.328 113.242-349.766 190.781C87.5 741.602 5.117 818.75 5.117 818.75m1690.547 1143.516s8.281-36.993 7.695-56.72c-4.101-135.507-14.023-265.859-75.976-386.054-61.875-120.039-153.75-216.601-269.883-285.469-116.016-68.789-244.687-102.46-379.531-99.765-134.922 2.695-262.11 41.406-375.313 114.804-113.32 73.438-201.25 173.555-258.242 295.938-57.11 122.617-60.703 253.242-60.39 388.906.038 9.883 4.53 28.36 4.53 28.36m1671.056-135.508s-132.93 4.375-202.97 6.25c-17.538.469-50.742 1.133-50.742 1.133m265.312-269.297s-159.023 47.617-242.929 72.265c-16.797 4.961-48.75 14.18-48.75 14.18" transform="matrix(.1 0 0 -.1 0 199)"/>
    <path style="fill:none;stroke-width:7.08483;stroke-linecap:butt;stroke-linejoin:miter;stroke:#d8edfe;stroke-opacity:1;stroke-miterlimit:10" d="M1974.336 1257.852s-14.102 8.75-21.563 13.32c-104.257 64.062-198.046 121.406-302.734 184.805-14.922 9.062-43.36 26.093-43.36 26.093m375.313-656.21s-136.367 144.53-208.633 220.234c-84.375 88.36-160.468 167.422-245.468 255.117-12.188 12.578-35.47 36.289-35.47 36.289M1978.594 77.227s-62.617 116.445-95.82 177.734c-58.086 107.226-110.313 203.437-168.946 310.39-58.672 106.993-111.601 202.891-170.937 309.532-59.258 106.523-112.735 201.953-172.618 308.125-8.554 15.195-24.96 43.945-24.96 43.945m125-1216.64s-12.266 48.085-18.711 73.437c-30 118.047-56.524 224.14-86.72 342.148-30.155 117.93-57.538 223.75-88.163 341.563-30.625 117.93-58.477 223.71-89.297 341.562-4.375 16.836-12.735 48.75-12.735 48.75M992.11.39v1133.868M513.906 10.313s12.266 48.085 18.711 73.437c30 118.047 56.563 224.14 86.758 342.148 30.156 117.93 57.54 223.75 88.164 341.563 30.625 117.93 58.438 223.71 89.297 341.562 4.375 16.836 12.734 48.75 12.734 48.75M5.664 77.227s62.617 116.445 95.82 177.734C159.57 362.187 211.797 458.398 270.43 565.35c58.672 106.993 111.601 202.891 170.937 309.532 59.219 106.523 112.735 201.953 172.617 308.125 8.555 15.195 24.961 43.945 24.961 43.945M2.266 825.86s136.328 144.53 208.632 220.234c84.375 88.36 160.43 167.422 245.47 255.117 12.187 12.578 35.429 36.289 35.429 36.289M9.922 1257.852s14.101 8.75 21.523 13.32c104.297 64.062 198.086 121.406 302.774 184.805 14.922 9.062 43.36 26.093 43.36 26.093m-364.532 82.774s159.023 47.617 242.93 72.265c16.796 4.961 48.75 14.18 48.75 14.18M24.648 1826.758s132.93 4.375 202.97 6.25c17.5.469 50.741 1.133 50.741 1.133" transform="matrix(.1 0 0 -.1 0 199)"/>
    <path style="fill:none;stroke-width:9.92219;stroke-linecap:round;stroke-linejoin:miter;stroke:#a4d8e6;stroke-opacity:1;stroke-miterlimit:10" d="m1269.922 1863.906.976.196m103.36 23.32-.977-.235" transform="matrix(.1 0 0 -.1 0 199)"/>
    <path style="fill:none;stroke-width:9.92219;stroke-linecap:butt;stroke-linejoin:miter;stroke:#a4d8e6;stroke-opacity:1;stroke-dasharray:41.1307,24.6784,0,0;stroke-miterlimit:10" d="m1269.922 1863.906 1.992.43 5.469 1.25 8.203 1.797 10.078 2.265 11.211 2.54 11.523 2.578 11.094 2.5 9.883 2.226 4.96 1.133 5.548 1.25 5.82 1.328 5.625 1.25 5.04 1.172 4.1.938 2.774.624 1.016.235" transform="matrix(.1 0 0 -.1 0 199)"/>
    <path style="fill:none;stroke-width:9.92219;stroke-linecap:round;stroke-linejoin:miter;stroke:#a4d8e6;stroke-opacity:1;stroke-miterlimit:10" d="m1374.258 1887.422-.235.976m-35.507 91.133.468-.86" transform="matrix(.1 0 0 -.1 0 199)"/>
    <path style="fill:none;stroke-width:9.92219;stroke-linecap:butt;stroke-linejoin:miter;stroke:#a4d8e6;stroke-opacity:1;stroke-dasharray:38.1411,22.8846,0,0;stroke-miterlimit:10" d="m1374.258 1887.422-.156.625-.391 1.601-.43 1.915-.468 1.835-1.68 5.938-1.446 5.937-1.992 5.938-1.68 5.976-1.992 5.938-2.265 5.664-1.992 5.977-2.54 5.664-2.265 5.664-2.54 5.664-2.577 5.664-2.54 5.703-2.85 5.352-3.087 5.664-.86 1.64-.937 1.758-.742 1.406-.312.586" transform="matrix(.1 0 0 -.1 0 199)"/>
    <path style="fill:none;stroke-width:9.92219;stroke-linecap:round;stroke-linejoin:miter;stroke:#a4d8e6;stroke-opacity:1;stroke-miterlimit:10" d="m1915.078 1730.117-.976.078m-318.477 30.821.977-.118" transform="matrix(.1 0 0 -.1 0 199)"/>
    <path style="fill:none;stroke-width:9.92219;stroke-linecap:butt;stroke-linejoin:miter;stroke:#a4d8e6;stroke-opacity:1;stroke-dasharray:55.3375,33.2025,0,0;stroke-miterlimit:10" d="m1915.078 1730.117-2.031.196-5.586.546-8.36.86-10.273 1.015-11.445 1.133-11.758 1.172-11.328 1.133-10.078 1.015-35.586 3.555-35.547 3.516-35.43 3.437-35.43 3.36-35.585 3.437-35.586 3.399-5.04.43-5.663.507-5.899.547-5.703.469-5.156.468-4.14.352-2.813.234-1.016.118" transform="matrix(.1 0 0 -.1 0 199)"/>
    <path style="fill:none;stroke-width:9.92219;stroke-linecap:round;stroke-linejoin:miter;stroke:#a4d8e6;stroke-opacity:1;stroke-miterlimit:10" d="m1595.625 1761.016-.078-1.016m-60.859-211.328.43.898" transform="matrix(.1 0 0 -.1 0 199)"/>
    <path style="fill:none;stroke-width:9.92219;stroke-linecap:butt;stroke-linejoin:miter;stroke:#a4d8e6;stroke-opacity:1;stroke-dasharray:52.9407,31.7644,0,0;stroke-miterlimit:10" d="m1595.625 1761.016-.078-1.094-.235-2.617-.273-3.243-.273-3.007-1.133-9.61-1.133-9.922-1.406-9.921-1.719-9.649-1.68-9.648-1.992-9.61-1.992-9.922-2.266-9.375-2.539-9.609-2.539-9.648-2.851-9.375-2.852-9.61-3.086-9.375-3.437-9.336-3.399-9.101-3.398-9.336-3.946-9.063-3.71-9.062-4.22-9.102-3.984-8.789-4.53-8.789-.704-1.367-.742-1.484-.586-1.172-.235-.508" transform="matrix(.1 0 0 -.1 0 199)"/>
    <path style="fill:none;stroke-width:9.92219;stroke-linecap:round;stroke-linejoin:miter;stroke:#a4d8e6;stroke-opacity:1;stroke-miterlimit:10" d="m1534.688 1548.672.859-.43m125.547-65.586-.86.43" transform="matrix(.1 0 0 -.1 0 199)"/>
    <path style="fill:none;stroke-width:9.92219;stroke-linecap:butt;stroke-linejoin:miter;stroke:#a4d8e6;stroke-opacity:1;stroke-dasharray:54.8609,32.9166,0,0;stroke-miterlimit:10" d="m1534.688 1548.672 1.796-.938 5-2.578 7.461-3.867 9.18-4.766 10.195-5.312 10.508-5.469 10.078-5.273 8.985-4.688 8.984-4.687 10.078-5.313 10.508-5.508 10.234-5.351 9.18-4.805 7.422-3.906 5-2.617 1.797-.938" transform="matrix(.1 0 0 -.1 0 199)"/>
    <path style="fill:none;stroke-width:9.92219;stroke-linecap:round;stroke-linejoin:miter;stroke:#a4d8e6;stroke-opacity:1;stroke-miterlimit:10" d="m1661.094 1482.656-.469-.898m-84.844-126.953.625.742" transform="matrix(.1 0 0 -.1 0 199)"/>
    <path style="fill:none;stroke-width:9.92219;stroke-linecap:butt;stroke-linejoin:miter;stroke:#a4d8e6;stroke-opacity:1;stroke-dasharray:59.2331,35.5399,0,0;stroke-miterlimit:10" d="m1661.094 1482.656-.157-.351-.468-.82-.703-1.29-.86-1.562-.976-1.719-.977-1.797-.976-1.719-.82-1.523-5.938-10.781-2.969-5.43-3.008-5.351-6.523-10.47-6.524-10.507-3.242-5.274-3.281-5.195-3.36-5.156-3.437-5.078-3.516-4.961-3.554-4.961-7.383-9.883-7.383-9.922-3.633-4.883-3.71-4.765-7.93-9.649-1.211-1.445-1.29-1.601-1.054-1.25-.43-.508" transform="matrix(.1 0 0 -.1 0 199)"/>
    <path style="fill:none;stroke-width:9.92219;stroke-linecap:round;stroke-linejoin:miter;stroke:#a4d8e6;stroke-opacity:1;stroke-miterlimit:10" d="m1575.781 1354.805.742-.664m162.54-137.11-.782.625" transform="matrix(.1 0 0 -.1 0 199)"/>
    <path style="fill:none;stroke-width:9.92219;stroke-linecap:butt;stroke-linejoin:miter;stroke:#a4d8e6;stroke-opacity:1;stroke-dasharray:50.8629,30.5177,0,0;stroke-miterlimit:10" d="m1575.781 1354.805 1.563-1.328 4.297-3.633 6.406-5.39 7.89-6.68 8.79-7.422 9.062-7.618 8.672-7.343 7.734-6.524 27.227-22.969 27.226-22.93 7.696-6.523 8.71-7.343 9.063-7.657 8.75-7.382 7.93-6.68 6.406-5.39 4.258-3.634 1.601-1.328" transform="matrix(.1 0 0 -.1 0 199)"/>
    <path style="fill:none;stroke-width:9.92219;stroke-linecap:round;stroke-linejoin:miter;stroke:#a4d8e6;stroke-opacity:1;stroke-miterlimit:10" d="m1739.063 1217.031-.665-.742m-277.421-222.891.898.43" transform="matrix(.1 0 0 -.1 0 199)"/>
    <path style="fill:none;stroke-width:9.92219;stroke-linecap:butt;stroke-linejoin:miter;stroke:#a4d8e6;stroke-opacity:1;stroke-dasharray:48.5324,29.1194,0,0;stroke-miterlimit:10" d="m1739.063 1217.031-.313-.351-.82-.977-1.25-1.445-1.524-1.758-1.68-1.953-1.718-2.031-1.68-1.954-1.523-1.718-5.196-5.977-5.273-5.937-5.352-5.977-5.43-5.937-5.507-5.82-5.547-5.782-5.625-5.703-5.703-5.625-5.664-5.547-5.703-5.547-5.782-5.547-5.82-5.468-5.781-5.43-5.86-5.352-5.898-5.273-5.976-5.235-6.094-5.273-6.133-5.195-6.055-5.157-6.093-5.039-6.211-5.039-6.29-4.921-6.367-4.805-6.367-4.805-6.367-4.844-6.406-4.804-6.485-4.688-6.562-4.648-6.485-4.57-6.562-4.532-6.602-4.414-6.718-4.375-6.641-4.258-6.64-4.218-6.797-4.297-6.836-4.22-6.915-4.023-6.953-3.906-6.953-3.984-6.953-3.945-6.914-3.868-6.992-3.789-2.11-1.133-2.343-1.21-1.836-.938-.781-.39" transform="matrix(.1 0 0 -.1 0 199)"/>
    <path style="fill:none;stroke-width:9.92219;stroke-linecap:round;stroke-linejoin:miter;stroke:#a4d8e6;stroke-opacity:1;stroke-miterlimit:10" d="m741.563 1814.57-1.016.04m-427.031 5.35h.976" transform="matrix(.1 0 0 -.1 0 199)"/>
    <path style="fill:none;stroke-width:9.92219;stroke-linecap:butt;stroke-linejoin:miter;stroke:#a4d8e6;stroke-opacity:1;stroke-dasharray:47.5631,28.5379,0,0;stroke-miterlimit:10" d="m741.563 1814.57-2.07.04-5.626.078-8.437.117-10.352.195-11.523.156-11.875.196-11.407.195-10.156.156-35.742.586-35.703.547-35.586.586-35.547.547-35.742.468-35.703.391-35.703.274-35.743.273-10.078.078-11.367.117-11.836.078-11.484.118-10.352.078-8.36.039-5.624.039-2.031.039" transform="matrix(.1 0 0 -.1 0 199)"/>
    <path style="fill:none;stroke-width:9.92219;stroke-linecap:round;stroke-linejoin:miter;stroke:#a4d8e6;stroke-opacity:1;stroke-miterlimit:10" d="m313.516 1819.96-.04-1.015m14.219-152.617-.195.977" transform="matrix(.1 0 0 -.1 0 199)"/>
    <path style="fill:none;stroke-width:9.92219;stroke-linecap:butt;stroke-linejoin:miter;stroke:#a4d8e6;stroke-opacity:1;stroke-dasharray:59.4703,35.6822,0,0;stroke-miterlimit:10" d="m313.516 1819.96-.04-1.327-.117-3.281-.078-4.102-.039-3.79.274-12.46.273-12.187.586-12.461.547-12.188 1.133-12.46 1.132-12.188 1.407-12.188 1.719-12.5 1.718-12.187 2.266-12.188 2.265-11.875.352-1.914.352-2.031.312-1.64.117-.665" transform="matrix(.1 0 0 -.1 0 199)"/>
    <path style="fill:none;stroke-width:9.92219;stroke-linecap:round;stroke-linejoin:miter;stroke:#a4d8e6;stroke-opacity:1;stroke-miterlimit:10" d="m327.695 1666.328-.976-.234M49.023 1605.39l.977.196" transform="matrix(.1 0 0 -.1 0 199)"/>
    <path style="fill:none;stroke-width:9.92219;stroke-linecap:butt;stroke-linejoin:miter;stroke:#a4d8e6;stroke-opacity:1;stroke-dasharray:49.1789,29.5073,0,0;stroke-miterlimit:10" d="m327.695 1666.328-2.03-.43-5.509-1.21-8.203-1.758-10.117-2.188-11.25-2.422-11.602-2.5-11.132-2.382-9.883-2.149-34.883-7.5-34.844-7.5-34.883-7.617-34.882-7.695-9.844-2.188-11.133-2.5-11.523-2.617-11.211-2.5-10.079-2.266-8.164-1.836-5.468-1.25-2.032-.43" transform="matrix(.1 0 0 -.1 0 199)"/>
    <path style="fill:none;stroke-width:9.92219;stroke-linecap:round;stroke-linejoin:miter;stroke:#a4d8e6;stroke-opacity:1;stroke-miterlimit:10" d="m1978.281 1118.672-.586-.82m-17.539-23.555.586.781" transform="matrix(.1 0 0 -.1 0 199)"/>
    <path style="fill:none;stroke-width:9.92219;stroke-linecap:butt;stroke-linejoin:miter;stroke:#a4d8e6;stroke-opacity:1;stroke-dasharray:30.3902,18.2341,0,0;stroke-miterlimit:10" d="m1978.281 1118.672-1.289-1.797-3.203-4.297-3.984-5.39-3.711-4.961-1.797-2.422-1.953-2.578-1.563-2.07-.625-.86" transform="matrix(.1 0 0 -.1 0 199)"/>
    <path style="fill:none;stroke-width:9.92219;stroke-linecap:round;stroke-linejoin:miter;stroke:#a4d8e6;stroke-opacity:1;stroke-miterlimit:10" d="m1965.547 217.813-.86-.508M1666.758 77.773l.937.352" transform="matrix(.1 0 0 -.1 0 199)"/>
    <path style="fill:none;stroke-width:9.92219;stroke-linecap:butt;stroke-linejoin:miter;stroke:#a4d8e6;stroke-opacity:1;stroke-dasharray:44.6498,26.7899,0,0;stroke-miterlimit:10" d="m1965.547 217.813-.781-.47-2.188-1.25-3.203-1.874-3.984-2.344-4.454-2.54-4.57-2.655-4.414-2.5-3.906-2.227-13.711-7.578-13.79-7.46-13.827-7.423-13.946-7.304-14.14-7.149-14.219-7.031-14.023-6.875-14.024-6.719-14.297-6.758-14.336-6.562-14.453-6.446-14.453-6.328-14.453-6.172-14.453-6.015-14.61-5.86-14.609-5.78-14.57-5.704-14.61-5.625-2.109-.781-2.344-.86-2.46-.898-2.383-.86-2.11-.78-1.758-.626-1.171-.43-.43-.156" transform="matrix(.1 0 0 -.1 0 199)"/>
    <path style="fill:none;stroke-width:9.92219;stroke-linecap:round;stroke-linejoin:miter;stroke:#a4d8e6;stroke-opacity:1;stroke-miterlimit:10" d="m1666.758 77.773.351-.937m23.477-65.938-.352.938" transform="matrix(.1 0 0 -.1 0 199)"/>
    <path style="fill:none;stroke-width:9.92219;stroke-linecap:butt;stroke-linejoin:miter;stroke:#a4d8e6;stroke-opacity:1;stroke-dasharray:71.0051,42.6031,0,0;stroke-miterlimit:10" d="m1666.758 77.773 23.828-66.875" transform="matrix(.1 0 0 -.1 0 199)"/>
    <path style="fill:none;stroke-width:9.92219;stroke-linecap:round;stroke-linejoin:miter;stroke:#32c3e6;stroke-opacity:1;stroke-miterlimit:10" d="m905.117 1881.758.586.781m52.969 49.688-.86-.508m.86.508.898.43m206.055-92.852-.234.976m167.734-902.968.938.351m126.914 55.234-.86-.507m.86.507.468-.898m228.282-440.469-.47.86m.47-.86-.899-.468M1347.89 426.445l.977.235m-.977-.235.196-.976m61.874-275.977-.233.977m.233-.977-.976-.195m-720.156-8.867.977-.196m-.977.196.195.976m55.079 277.11-.196-.977m.196.977-.977.195M443.32 514.336l.938-.39m-.938.39.43.898m143.32 323.36-.43-.899m.43.899-.937.43M360 976.367l.781-.625m-.781.625.625.781M580.234 1255l-.586-.781m.586.781-.742.625m-67.539 61.485.703-.704m-.703.704.703.663m307.11 294.687-.703-.702m.703.702-.664.743m-77.539 201.367-.079-.976m.079.976.976-.039m10.899-.234h-.977m.977 0v.976m39.96 133.946-.546-.82m.546.82.86-.508m110.859-66.953-.86.508m261.368-42.461.938.234m103.359 23.867-.977-.234m.977.234.195-.976m-217.89-302.07h.976m-.976 0 .078-.977m46.133-457.383-.118 1.016m.118-1.016.976.078m163.984 36.212-.937-.313m.937.313.313-.938m69.414-200.039-.312.937" transform="matrix(.1 0 0 -.1 0 199)"/>
    <path style="fill:none;stroke-width:9.92219;stroke-linecap:butt;stroke-linejoin:miter;stroke:#32c3e6;stroke-opacity:1;stroke-dasharray:49.4006,29.6404,0,0;stroke-dashoffset:24.9066;stroke-miterlimit:10" d="m905.117 1881.758.547.703.86 1.289 1.132 2.266 1.407 1.992 1.406 1.953 1.718 1.992 1.407 1.992 1.445 1.993 1.68 1.953 1.718 1.718 1.407 1.993 1.718 1.68 1.68 1.991 1.719 1.72 1.953 1.679 1.094 1.055.625.664.625.625 1.054 1.093 1.993 1.68 1.992 1.68 1.719 1.445 1.953 1.68 1.992 1.445 1.992 1.68 1.992 1.406 1.992 1.406 2.266 1.446 1.992 1.132 2.227 1.407 1.992 1.132 2.266 1.446 1.25.703.742.43m0 0 .86.39 1.405.742 2.266 1.133 2.266 1.133 2.265 1.133 2.266.82 2.266.86 2.304 1.132 2.54.86 2.265.86 2.266.858 2.539.547 2.265.86 2.266.547 2.578.859 2.266.586 2.539.547 2.539.273 2.265.586 2.579.586 2.539.274 2.265.273 2.54.273 2.577.274 2.54.312h2.265l2.54.274h12.5l2.538-.274h2.54l2.577-.312 2.266-.274 2.54-.273 2.538-.547 2.54-.312 2.304-.586 2.539-.274 2.266-.547 2.539-.586 2.578-.546 2.265-.586 2.54-.82 2.265-.86 2.266-.586 2.539-.82 2.265-.86 2.266-.86 2.305-1.132 2.265-.86 2.227-1.132 2.305-.86 2.265-1.093 2.266-1.172 2.265-1.133 2.266-1.406 1.992-1.133 2.266-1.406 1.992-1.133 1.953-1.445 2.266-1.407 1.992-1.406 1.992-1.406 1.992-1.445 1.993-1.68 1.953-1.445 1.992-1.68 1.719-1.719 1.953-1.68 1.719-1.718 1.68-1.68 1.991-1.719 1.72-1.68 1.679-1.992 1.445-1.718 1.68-1.993 1.719-1.953 1.406-1.718 1.719-1.954 1.406-1.992 1.406-1.992 1.445-2.266 1.407-1.992 1.406-1.992 1.133-2.266 1.445-1.992 1.094-2.265 1.445-1.954 1.133-2.304 1.133-2.266.82-2.265 1.172-2.266 1.133-2.266.82-2.265.86-2.266.859-2.266.86-2.265.859-2.54.82-2.265.586-2.265.82-2.579.586-2.265.352-1.602.234-.937m167.5-901.993.43.157 1.21.43 1.758.624 2.188.782 2.422.86 2.5.898 2.383.859 2.148.781 7.5 2.813 7.5 2.851 7.383 2.813 7.383 2.851 7.382 3.086 7.344 3.164 7.227 3.086 7.226 3.164 7.383 3.36 7.383 3.437 7.07 3.36 7.07 3.437 7.266 3.477 7.227 3.593 3.164 1.68 3.437 1.875 2.735 1.523 1.133.625m0 0 .937-1.836 2.617-4.96 3.867-7.422 4.766-9.102 5.313-10.156 5.468-10.469 5.235-10.078 4.687-8.945 16.446-31.563 16.445-31.64 16.289-31.446 16.289-31.484 16.445-31.445 16.446-31.485 16.328-31.601 16.25-31.602 16.172-31.484 16.171-31.446 4.61-8.984 5.195-10.117 5.43-10.508 5.273-10.195 4.727-9.18 3.828-7.422 2.578-5 .938-1.797m0 0-.625-.351-1.72-.86-2.577-1.289-3.164-1.64-3.516-1.758-3.633-1.836-3.476-1.758-3.125-1.562-21.797-10.782-22.11-10.195-22.109-9.922-22.422-9.648-22.656-9.063-22.695-8.789-22.97-8.515-22.929-7.93-22.969-7.656-23.242-7.07-23.515-7.11-23.555-6.211-23.516-6.25-7.11-1.68-7.694-1.758-6.211-1.406-2.5-.547m0 0 .43-1.992 1.21-5.469 1.875-8.125 2.227-10.039 2.539-11.172 2.578-11.484 2.5-11.055 2.227-9.843 7.812-34.57 7.774-34.571 7.656-34.61 7.656-34.57 2.188-9.882 2.5-11.094 2.578-11.524 2.5-11.21 2.304-10.079 1.836-8.164 1.211-5.469.469-2.03m0 0-.82-.157-2.227-.469-3.36-.703-4.1-.86-4.571-.976-4.727-.976-4.531-.977-4.023-.82-28.633-5.977-14.297-2.617-14.336-2.461-28.633-4.805-28.594-4.257-28.945-3.711-28.906-3.399-28.906-2.812-28.907-2.266-28.906-1.992-14.61-.625-14.609-.508-28.906-1.133-29.219-.312-28.906.312-29.18.547-28.906 1.133-28.945 1.445-29.18 1.953-28.906 2.852-14.453 1.367-14.453 1.484-28.633 3.672-28.946 3.946-28.593 4.53-14.336 2.345-14.297 2.5-4.102.742-4.57.898-4.766.938-4.609.937-4.14.82-3.36.704-2.266.468-.82.157m0 0 .39 1.992 1.095 5.508 1.64 8.164 2.031 10.078 2.227 11.21 2.305 11.524L700.742 200l1.953 9.883 6.992 34.726 6.915 34.727 6.796 34.726 6.797 34.727 1.992 9.883 2.188 11.172 2.305 11.562 2.265 11.25 1.992 10.156 1.641 8.204 1.094 5.468.43 2.032m0 0-2.579.507-6.25 1.25-7.812 1.563-7.188 1.484-23.515 5.39-23.828 5.978-23.516 6.21-23.242 6.524-23.516 7.11-22.968 7.343-23.243 7.656-22.968 8.242-22.657 8.477-22.695 9.063-22.383 9.375-6.758 2.89-7.343 3.164-5.899 2.54-2.422 1.054m0 0 .82 1.836 2.266 5.156 3.399 7.617 4.14 9.414 4.61 10.508 4.765 10.781L467.89 570l4.063 9.219 14.297 32.46 14.336 32.462 14.453 32.46 14.492 32.462 14.297 32.304 14.297 32.305 4.102 9.258 4.609 10.351 4.805 10.782 4.687 10.507 4.18 9.414 3.437 7.618 2.266 5.117.86 1.875m0 0-1.837.82-4.375 1.992-5.507 2.5-5.04 2.344-16.406 7.93-16.445 8.242-16.445 8.515-7.97 4.336-7.929 4.414-16.133 9.102-7.968 4.61-7.93 4.726-7.774 4.805-7.812 4.843-7.812 4.766-7.774 4.883-7.695 5.039-7.617 5.156-7.5 5.196-7.5 5.273-7.54 5.234-7.5 5.274-7.382 5.468-7.344 5.586-7.383 5.508-7.383 5.547-2.148 1.68-2.305 1.875-1.875 1.484-.742.625m0 0 1.25 1.602 3.477 4.414 5.156 6.562 6.406 8.125 7.07 8.985 7.305 9.297 7.031 8.945 6.25 7.93 21.953 27.93 21.993 27.89 22.07 27.773 22.148 27.774 21.954 27.93 21.953 27.93 6.289 7.89 7.03 8.906 7.384 9.219 7.11 8.984 6.444 8.047 5.196 6.523 3.515 4.375 1.25 1.602m0 0-.273.234-.742.625-1.094.86-1.328 1.133-1.524 1.21-1.562 1.29-1.484 1.21-1.329 1.094-4.843 3.946-4.805 4.023-9.062 8.203-9.375 8.203-8.75 8.242-4.57 4.375-4.532 4.415-8.477 8.476-1.367 1.367-1.484 1.485-1.211 1.21-.469.508m0 0 1.445 1.407 4.063 3.867 6.055 5.82 7.422 7.149 8.28 7.968 8.555 8.203 8.204 7.891 7.265 6.992 25.508 24.649 25.508 24.687 25.664 24.688 25.664 24.648 25.625 24.531 25.664 24.493 25.82 24.648 25.782 24.688 7.265 6.953 8.203 7.812 8.555 8.164 8.281 7.93 7.422 7.11 6.055 5.78 4.023 3.868 1.485 1.406m0 0-.313.351-.82.899-1.016 1.133-.976 1.015-3.36 3.672-3.437 3.711-3.125 3.946-3.086 3.71-3.125 3.946-2.852 3.984-3.086 3.945-2.851 3.985-2.852 3.984-2.539 4.219-2.539 4.258-2.851 4.258-2.266 4.257-2.54 4.258-2.265 4.258-2.265 4.531-2.266 4.532-1.992 4.257-1.992 4.532-1.993 4.53-1.953 4.532-1.718 4.844-1.72 4.531-1.679 4.531-1.445 4.805-1.68 4.844-1.133 4.492-1.406 4.844-1.133 4.804-1.133 4.844-1.132 4.805-.86 4.804-.86 4.844-.859 5.078-.82 4.844-.586 4.805-.547 5.117-.312 4.805-.547 4.804-.274 5.118v4.804l-.312 5.117v4.805l.078 1.563.078 1.68.117 1.327.04.547m0 0 11.875-.273m0 0v4.531l.273 4.805.312 4.844.547 4.804.274 4.532.586 4.804.86 4.57.546 4.805.86 4.531.859 4.805 1.133 4.57 1.132 4.805 1.133 4.531 1.133 4.532 1.406 4.53 1.133 4.532 1.719 4.57 1.406 4.493 1.719 4.57 1.68 4.258 1.718 4.492 1.992 4.258 1.68 4.57 2.266 4.219 1.992 4.258 2.265 4.257 1.993 4.258 2.539 3.985 2.265 4.218.743 1.211.859 1.328.664 1.016.273.43m0 0 1.758-1.055 4.805-2.93 7.187-4.336 8.829-5.351 9.843-5.938 10.157-6.132 9.726-5.86 8.672-5.234 7.188-4.375 8.125-4.883 8.398-5.078 8.203-4.961 7.383-4.453 5.976-3.594 3.985-2.422 1.484-.86m260.508-41.952 1.992.468 5.469 1.29 8.164 1.914 10.078 2.343 11.211 2.618 11.563 2.656 11.093 2.578 9.844 2.305 4.961 1.132 5.586 1.25 5.781 1.329 5.625 1.289 5.04 1.132 4.14.938 2.734.625 1.016.234m0 0 .078-.468.234-1.133.274-1.368.273-1.289.82-4.257.86-4.258.86-4.258.585-4.531.547-4.258.586-4.219.547-4.258.312-4.257.274-4.532v-4.257l.273-4.258v-13.047l-.273-4.258-.274-4.258-.312-4.531-.547-4.219-.312-4.258-.547-4.257-.586-4.258-.82-4.258-.86-4.258-.86-4.258-.859-4.218-1.132-4.258-.86-4.258-1.406-4.258-1.133-3.984-1.133-4.258-1.406-3.945-1.406-4.258-1.719-3.946-1.406-3.984-1.719-3.984-1.68-3.946-1.992-3.984-1.719-3.945-1.992-3.711-1.953-3.946-1.992-3.71-2.266-3.946-2.265-3.71-2.266-3.673-2.266-3.671-2.265-3.399-2.578-3.71-2.54-3.4-2.539-3.671-2.578-3.399-2.812-3.398-2.578-3.398-2.813-3.125-2.812-3.399-3.125-3.125-2.852-3.125-3.125-3.125-3.125-3.125-3.086-2.812-3.125-2.852-3.398-3.125-3.125-2.539-3.399-2.812-3.398-2.852-3.438-2.54-3.398-2.577-3.672-2.54-3.398-2.538-3.672-2.266-3.711-2.266-3.672-2.265-3.672-2.266-3.984-2.265-3.672-1.993-3.985-1.992-3.671-1.992-3.985-1.68-3.945-1.992-3.984-1.719-3.985-1.68-3.945-1.445-4.258-1.68-3.945-1.406-4.297-1.445-3.945-1.133-4.258-1.406-4.258-1.133-3.945-1.133-4.258-.859-4.258-1.133-4.258-.86-4.258-.82-4.257-.585-4.22-.86-4.57-.547-4.218-.586h-1.992m0 0 .195-2.03.547-5.548.86-8.32 1.015-10.234 1.133-11.407 1.21-11.718 1.094-11.29 1.016-10.039 3.515-35.273 3.594-35.273 3.672-35.313 3.672-35.312 3.555-35.118 3.554-35.156 3.516-35.312 3.555-35.274 3.554-35.273 3.555-35.313.469-5 .547-5.625.547-5.82.585-5.664.47-5.117.39-4.14.273-2.774.118-1.016m0 0 1.289.117 3.242.274 3.984.351 3.672.39 12.188 1.72 12.187 1.68 12.188 1.991 6.093.938 6.094 1.055 12.188 2.539 11.914 2.578 11.875 2.812 11.914 2.852 11.914 3.086 11.914 3.398 11.914 3.711 11.601 3.985 2.657.859 2.89.898 2.305.743.937.312m0 0 .665-1.914 1.835-5.273 2.735-7.891 3.398-9.727 3.75-10.78 3.867-11.095 3.711-10.703 3.282-9.531 11.64-33.594 11.602-33.554 3.281-9.532 3.75-10.664 3.828-11.133 3.75-10.78 3.399-9.727 2.734-7.852 1.836-5.312.664-1.914" transform="matrix(.1 0 0 -.1 0 199)"/>
    <use xlink:href="#b" x="110.873" y="156.922" style="fill:#b9b9b9;fill-opacity:1"/>
    <use xlink:href="#c" x="118.115" y="155.923" style="fill:#b9b9b9;fill-opacity:1"/>
    <use xlink:href="#d" x="121.896" y="155.353" style="fill:#b9b9b9;fill-opacity:1"/>
    <use xlink:href="#e" x="127.582" y="154.415" style="fill:#b9b9b9;fill-opacity:1"/>
    <use xlink:href="#f" x="136.62" y="152.58" style="fill:#b9b9b9;fill-opacity:1"/>
    <use xlink:href="#g" x="144.836" y="149.875" style="fill:#b9b9b9;fill-opacity:1"/>
    <use xlink:href="#h" x="147.57" y="148.884" style="fill:#b9b9b9;fill-opacity:1"/>
    <use xlink:href="#i" x="153.407" y="146.606" style="fill:#b9b9b9;fill-opacity:1"/>
    <use xlink:href="#j" x="159.152" y="144.232" style="fill:#b9b9b9;fill-opacity:1"/>
    <use xlink:href="#k" x="34.81" y="184.305" style="fill:#b9b9b9;fill-opacity:1"/>
    <use xlink:href="#l" x="41.678" y="186.655" style="fill:#b9b9b9;fill-opacity:1"/>
    <use xlink:href="#m" x="45.435" y="187.904" style="fill:#b9b9b9;fill-opacity:1"/>
    <use xlink:href="#n" x="50.902" y="189.473" style="fill:#b9b9b9;fill-opacity:1"/>
    <use xlink:href="#o" x="56.322" y="190.832" style="fill:#b9b9b9;fill-opacity:1"/>
    <use xlink:href="#p" x="115.789" y="69.807" style="fill:#b9b9b9;fill-opacity:1"/>
    <use xlink:href="#q" x="122.462" y="66.281" style="fill:#b9b9b9;fill-opacity:1"/>
    <use xlink:href="#r" x="127.754" y="63.319" style="fill:#b9b9b9;fill-opacity:1"/>
    <use xlink:href="#s" x="135.571" y="58.038" style="fill:#b9b9b9;fill-opacity:1"/>
    <use xlink:href="#t" x="140.184" y="54.371" style="fill:#b9b9b9;fill-opacity:1"/>
    <use xlink:href="#u" x="143.093" y="51.858" style="fill:#b9b9b9;fill-opacity:1"/>
    <use xlink:href="#v" x="148.729" y="45.175" style="fill:#b9b9b9;fill-opacity:1"/>
    <use xlink:href="#w" x="151.608" y="38.568" style="fill:#b9b9b9;fill-opacity:1"/>
    <use xlink:href="#x" x="153.182" y="32.889" style="fill:#b9b9b9;fill-opacity:1"/>
    <use xlink:href="#y" x="154.128" y="28.844" style="fill:#b9b9b9;fill-opacity:1"/>
    <use xlink:href="#z" x="155.164" y="22.42" style="fill:#b9b9b9;fill-opacity:1"/>
    <use xlink:href="#A" x="155.777" y="16.78" style="fill:#b9b9b9;fill-opacity:1"/>
    <use xlink:href="#B" x="156.052" y="13.785" style="fill:#b9b9b9;fill-opacity:1"/>
    <use xlink:href="#C" x="156.264" y="10.842" style="fill:#b9b9b9;fill-opacity:1"/>
    <path style="stroke:none;fill-rule:nonzero;fill:#fff;fill-opacity:1" d="M101.465 9.52a2.905 2.905 0 1 0-5.81.005 2.905 2.905 0 0 0 5.81-.005"/>
    <path style="stroke:none;fill-rule:nonzero;fill:#fff;fill-opacity:1" d="M97.059 8.219a.43.43 0 0 0-.426-.43.43.43 0 0 0-.426.43c0 .234.191.422.426.422a.423.423 0 0 0 .426-.422m64.687 17.035a1.532 1.532 0 1 0-3.066 0 1.534 1.534 0 0 0 3.066 0M192.813 57a.934.934 0 0 0-.934-.934.934.934 0 1 0 0 1.871.934.934 0 0 0 .934-.937M119.766 7.594a.513.513 0 0 0-.512-.512.513.513 0 0 0-.512.512.513.513 0 0 0 1.024 0m28.684 27.922a.42.42 0 0 0-.427-.426.42.42 0 0 0-.421.426.42.42 0 0 0 .421.422.42.42 0 0 0 .426-.422m-10.996-5.02a.427.427 0 0 0-.851 0 .427.427 0 0 0 .851 0m11.789 23.301a.423.423 0 1 0-.847 0 .423.423 0 1 0 .848 0m26.081-22.337a.427.427 0 0 0-.851 0 .427.427 0 0 0 .851 0m-.624 27.524a.427.427 0 0 0-.852 0 .427.427 0 0 0 .851 0m7.739-26.504a.427.427 0 0 0-.852 0 .427.427 0 0 0 .851 0M153.098 6.941a.423.423 0 0 0-.422-.425.43.43 0 0 0-.43.425c0 .235.191.426.43.426a.423.423 0 0 0 .422-.426M141.05 17.77a.426.426 0 1 0-.851 0 .426.426 0 0 0 .852 0m-.028 9.921a.427.427 0 0 0-.851 0 .427.427 0 0 0 .851 0m.34-20.551a.427.427 0 0 0-.851 0 .427.427 0 0 0 .851 0m19.957 35.63a.423.423 0 0 0-.425-.422.423.423 0 1 0 0 .847.424.424 0 0 0 .425-.425m-54.726 84.132a2.875 2.875 0 1 0-5.75 0 2.875 2.875 0 0 0 5.75 0M90.14 142.95a2.381 2.381 0 1 0-4.762-.004 2.381 2.381 0 0 0 4.763.003M11.469 161.77a2.312 2.312 0 1 0-4.625 0 2.312 2.312 0 0 0 4.625 0m132.394 29.535a2.016 2.016 0 0 0-2.015-2.016 2.016 2.016 0 1 0 0 4.035 2.02 2.02 0 0 0 2.015-2.02m41.602-60.406a1.865 1.865 0 1 0-3.731.005 1.865 1.865 0 0 0 3.73-.005M75.656 65.336a1.587 1.587 0 0 0-3.172 0 1.587 1.587 0 0 0 3.172 0m39.297 49.746a1.566 1.566 0 1 0-3.133 0 1.566 1.566 0 0 0 3.133 0M84.305 99.66a1.505 1.505 0 1 0-3.013.003 1.505 1.505 0 0 0 3.013-.003m1.41-65.875a1.47 1.47 0 1 0-2.942.003 1.47 1.47 0 0 0 2.942-.003m-66.309 78.293a1.549 1.549 0 1 0-3.097 0 1.549 1.549 0 1 0 3.098 0m82.796 73.192c0-.68-.55-1.235-1.234-1.235a1.234 1.234 0 1 0 1.234 1.235m49.805 1.074a1.177 1.177 0 1 0-2.354.002 1.177 1.177 0 0 0 2.354-.002M6.207 132.855a.994.994 0 0 0-.992-.992.994.994 0 0 0-.992.992c0 .547.445.993.992.993a.994.994 0 0 0 .992-.993m113.359-32.031a.967.967 0 0 0-.964-.965.967.967 0 0 0-.965.965c0 .531.433.965.965.965a.967.967 0 0 0 .964-.965m-94.578 77.781a.95.95 0 1 0-1.9.003.95.95 0 0 0 1.9-.003m-8.707-8.558a.86.86 0 1 0-1.722 0 .86.86 0 0 0 1.723 0"/>
    <path style="stroke:none;fill-rule:nonzero;fill:#fff;fill-opacity:1" d="M182.793 129.992a.781.781 0 1 0-1.562 0 .781.781 0 0 0 1.562 0M66.781 110.121a.763.763 0 1 0-1.525.002.763.763 0 0 0 1.525-.002m121.692 22.934a.764.764 0 0 0-1.527 0 .764.764 0 0 0 1.527 0M87.797 103.547a.746.746 0 1 0-1.492 0c0 .41.336.742.746.742a.743.743 0 0 0 .746-.742M44.465 154.77a.671.671 0 1 0-1.34 0 .671.671 0 0 0 1.34 0m45.91-11.594a.628.628 0 1 0-1.258 0c0 .344.281.625.63.625a.63.63 0 0 0 .628-.625M37.832 83.648a.585.585 0 1 0-1.17-.001.585.585 0 0 0 1.17.001M5.719 138.383a.56.56 0 0 0-.559-.559.56.56 0 0 0-.562.559.56.56 0 1 0 1.121 0m83.883 36.539a.424.424 0 1 0-.848 0 .423.423 0 1 0 .848 0m68.457-94.363a.42.42 0 0 0-.422-.426.42.42 0 0 0-.426.426.42.42 0 0 0 .426.421.42.42 0 0 0 .422-.421m-28.688 76.875a.423.423 0 1 0-.848 0 .423.423 0 1 0 .848 0m58.594 7.652a.427.427 0 0 0-.852 0 .427.427 0 0 0 .852 0M48.758 153.86a.427.427 0 0 0-.852 0 .427.427 0 0 0 .852 0m76.707-99.75a1.025 1.025 0 1 0-2.051.004 1.025 1.025 0 0 0 2.05-.005m55.696 105.364a.423.423 0 1 0-.847 0 .423.423 0 1 0 .848 0m-13.973-63.75a.427.427 0 0 0-.852 0 .427.427 0 0 0 .851 0m20.805 58.137a.424.424 0 1 0-.847 0 .424.424 0 1 0 .848 0M55.586 165.766a.424.424 0 1 0-.848 0 .423.423 0 1 0 .848 0m-43.453-57.684a.427.427 0 0 0-.852 0 .427.427 0 0 0 .852 0m57.344 2.125a.427.427 0 0 0-.852 0 .427.427 0 0 0 .852 0m76.507 29.227a.427.427 0 0 0-.851 0 .427.427 0 0 0 .851 0m-71.746-34.586a.423.423 0 1 0-.847.003.423.423 0 0 0 .847-.003m-3.031-17.203a.427.427 0 0 0-.852 0 .427.427 0 0 0 .852 0m4.848 72a.427.427 0 0 0-.852 0 .427.427 0 0 0 .852 0m25.824-91.93a.427.427 0 0 0-.852 0 .427.427 0 0 0 .852 0m89.207 54a.43.43 0 0 0-.43-.426.423.423 0 0 0-.422.426c0 .234.188.426.422.426.239 0 .43-.192.43-.426M59.754 72.309a.427.427 0 0 0-.852 0 .427.427 0 0 0 .852 0m71.492 16.496a.427.427 0 0 0-.851 0 .427.427 0 0 0 .851 0M75.629 195.926a.427.427 0 0 0-.852 0 .427.427 0 0 0 .852 0M86.43 31.742a.423.423 0 0 0-.426-.422.423.423 0 0 0-.426.422c0 .238.192.43.426.43a.43.43 0 0 0 .426-.43m62.277 97.856a.424.424 0 0 0-.426-.426.427.427 0 1 0 .426.426m14.738-47.086a.423.423 0 0 0-.425-.422.423.423 0 1 0 0 .847.427.427 0 0 0 .425-.425m-5.16 100.859a.424.424 0 1 0-.848-.003.424.424 0 0 0 .848.003M21.656 111.992a.427.427 0 0 0-.851 0 .427.427 0 0 0 .851 0m105.817-17.347a.427.427 0 0 0-.852 0 .427.427 0 0 0 .852 0M116.676 63.21a.424.424 0 0 0-.426-.425.424.424 0 1 0 0 .848.423.423 0 0 0 .426-.422M61.398 94.645a.427.427 0 0 0-.851 0 .427.427 0 0 0 .851 0m1.079 31.805a.427.427 0 0 0-.852 0 .427.427 0 0 0 .852 0m127.5 52.386a.42.42 0 0 0-.422-.426.42.42 0 0 0-.426.426c0 .234.187.422.426.422a.42.42 0 0 0 .422-.422M139.125 58.477a.427.427 0 0 0-.852 0 .427.427 0 0 0 .852 0m12.047 45.578a.427.427 0 0 0-.852 0 .427.427 0 0 0 .852 0M9.895 171.125a.427.427 0 0 0-.852 0 .427.427 0 0 0 .852 0m86.851 14.199a.427.427 0 0 0-.851 0 .427.427 0 0 0 .851 0m94.988 5.16a.427.427 0 1 0-.85.002.427.427 0 0 0 .85-.002m-168.632-.738a.423.423 0 1 0-.847.003.423.423 0 0 0 .847-.003m69.308-17.742a.427.427 0 0 0-.851 0c0 .234.191.422.425.422a.423.423 0 0 0 .426-.422m52.98-111.035a.427.427 0 0 0-.85 0 .427.427 0 0 0 .85 0m19.954 92.156a.426.426 0 1 0-.852 0 .426.426 0 0 0 .852 0M50.258 169.082a.427.427 0 0 0-.852 0 .427.427 0 0 0 .852 0m-2.949-64.035a.423.423 0 1 0-.848 0 .423.423 0 1 0 .848 0m-3.512-28.742a.427.427 0 0 0-.852 0 .427.427 0 0 0 .852 0m134.586 39.855a.423.423 0 1 0-.848 0 .424.424 0 1 0 .848 0m-48.301-41.074a.427.427 0 0 0-.852 0 .427.427 0 0 0 .852 0M108 87.504a.43.43 0 0 0-.426-.43.426.426 0 1 0 .426.43m13.379-50.176a.427.427 0 0 0-.852 0 .427.427 0 0 0 .852 0M110.41 27.012a.427.427 0 0 0-.851 0 .427.427 0 0 0 .851 0m69.762 82.035a.424.424 0 0 0-.426-.426.424.424 0 1 0 0 .848.423.423 0 0 0 .426-.422M42.152 119.79a.427.427 0 0 0-.851 0 .427.427 0 0 0 .851 0m10.176 8.843a.427.427 0 0 0-.851 0 .427.427 0 0 0 .851 0m104.625-7.938a.424.424 0 1 0-.848 0 .424.424 0 1 0 .848 0M67.266 86.367a.427.427 0 0 0-.852 0 .427.427 0 0 0 .852 0m48.925-52.496a.427.427 0 1 0-.85.002.427.427 0 0 0 .85-.002m20.696 127.332a.427.427 0 0 0-.852 0 .427.427 0 0 0 .852 0M65.594 96.996a.427.427 0 1 0-.854.002.427.427 0 0 0 .854-.002m107.066-1.301a.427.427 0 0 0-.851 0 .42.42 0 0 0 .425.422.423.423 0 0 0 .426-.422m-145.078-4a.423.423 0 0 0-.426-.422.423.423 0 1 0 0 .848.424.424 0 0 0 .426-.426m68.199-71.347a.42.42 0 0 0-.426-.422.42.42 0 0 0-.421.422.42.42 0 0 0 .421.425.42.42 0 0 0 .426-.425m-28.429 94.14a.427.427 0 0 0-.852 0 .427.427 0 0 0 .852 0m-39.856 29.168a.427.427 0 0 0-.851 0 .427.427 0 0 0 .851 0m109.133-73.531a.427.427 0 0 0-.852 0 .427.427 0 0 0 .852 0m7.769 91.703a.424.424 0 0 0-.425-.426.424.424 0 1 0 0 .848.423.423 0 0 0 .425-.422M15.25 170.527a.427.427 0 0 0-.852 0 .427.427 0 0 0 .852 0m34.441-12.16a.427.427 0 0 0-.851 0 .427.427 0 0 0 .851 0M9.324 128.379a.423.423 0 1 0-.847-.005.423.423 0 0 0 .847.005M5.98 145.953a.427.427 0 0 0-.851 0 .427.427 0 0 0 .851 0m118.43-24.859a.423.423 0 1 0-.847 0 .423.423 0 1 0 .848 0m49.069 68.344a.424.424 0 0 0-.425-.426.424.424 0 1 0 0 .847.423.423 0 0 0 .425-.422m-83.34-25.824a.427.427 0 1 0-.85.002.427.427 0 0 0 .85-.002m98.423 26.985a.427.427 0 1 0-.854.002.427.427 0 0 0 .853-.002m-54.539-86.883a.427.427 0 0 0-.851 0 .427.427 0 0 0 .851 0M91.078 81.86a.423.423 0 0 0-.426-.422.423.423 0 1 0 0 .847.424.424 0 0 0 .426-.426m62.559 42.325a.427.427 0 0 0-.852 0c0 .234.192.421.426.421a.423.423 0 0 0 .426-.421m15.136 55.898a.424.424 0 1 0-.847 0 .423.423 0 1 0 .847 0M7.766 94.445a2.068 2.068 0 1 0-4.137.003 2.068 2.068 0 0 0 4.137-.003m7.624-59.242a1.444 1.444 0 0 0-2.886 0 1.444 1.444 0 0 0 2.887 0m-.028 25a.427.427 0 0 0-.851 0 .427.427 0 0 0 .851 0M73.219 6.176a.427.427 0 0 0-.852 0 .427.427 0 0 0 .852 0M5.98 78.574a.427.427 0 0 0-.851 0c0 .235.191.422.426.422a.423.423 0 0 0 .425-.422m7.711-5.758a.426.426 0 0 0-.851 0c0 .239.191.426.426.426a.424.424 0 0 0 .425-.426m18.653-53.714a.427.427 0 0 0-.852 0 .427.427 0 0 0 .852 0m6.746 4.621a.427.427 0 0 0-.852 0 .427.427 0 0 0 .852 0M84.219 3.34a.427.427 0 0 0-.852 0 .427.427 0 0 0 .852 0M29.82 69.36a.427.427 0 0 0-.851 0 .427.427 0 0 0 .851 0m19.782-4.169a.448.448 0 0 0-.899 0 .45.45 0 0 0 .899 0m-3.086-45.976a.427.427 0 1 0-.85.002.427.427 0 0 0 .85-.002m-31.633-5.301a.427.427 0 0 0-.852 0 .427.427 0 0 0 .852 0M7.059 9.86a.427.427 0 0 0-.852 0 .427.427 0 0 0 .852 0M36.71 23.777a.426.426 0 0 0-.85 0c0 .239.187.426.425.426a.424.424 0 0 0 .426-.426M32.316 8.219a.43.43 0 0 0-.425-.43.43.43 0 0 0-.426.43c0 .234.191.422.426.422a.423.423 0 0 0 .425-.422m.2 37.926a.427.427 0 1 0-.854.002.427.427 0 0 0 .854-.002m4.589-34.383a.424.424 0 0 0-.425-.426.427.427 0 1 0 .426.426m24.859 33.59a.427.427 0 0 0-.852 0 .427.427 0 0 0 .852 0m-7.371-24.207a.42.42 0 0 0-.426-.426.42.42 0 0 0-.422.426.42.42 0 0 0 .422.421.42.42 0 0 0 .426-.421M6.887 41.129a.424.424 0 1 0-.848 0 .423.423 0 1 0 .848 0m7.144 27.637a.427.427 0 0 0-.851 0 .427.427 0 0 0 .851 0m26.223-14.032a.424.424 0 0 0-.426-.425.427.427 0 1 0 .426.426M57.91 35.457a.423.423 0 1 0-.847 0 .423.423 0 1 0 .848 0m-37.274 26.93a.427.427 0 0 0-.852 0 .427.427 0 0 0 .852 0M50.258 2.434a.427.427 0 0 0-.852 0 .427.427 0 0 0 .852 0"/>
    <path style="fill:none;stroke-width:9.92219;stroke-linecap:round;stroke-linejoin:miter;stroke:gray;stroke-opacity:1;stroke-miterlimit:10" d="m796.563 973.75-.82-.547m-110.353-68.75.82.508" transform="matrix(.1 0 0 -.1 0 199)"/>
    <path style="fill:none;stroke-width:9.92219;stroke-linecap:butt;stroke-linejoin:miter;stroke:gray;stroke-opacity:1;stroke-miterlimit:10" d="M796.563 973.75 685.39 904.453" transform="matrix(.1 0 0 -.1 0 199)"/>
    <path style="fill:none;stroke-width:9.92219;stroke-linecap:round;stroke-linejoin:miter;stroke:gray;stroke-opacity:1;stroke-miterlimit:10" d="m676.523 863.945.547-.82m175.118-264.453-.547.82" transform="matrix(.1 0 0 -.1 0 199)"/>
    <path style="fill:none;stroke-width:9.92219;stroke-linecap:butt;stroke-linejoin:miter;stroke:gray;stroke-opacity:1;stroke-miterlimit:10" d="m676.523 863.945 175.664-265.273" transform="matrix(.1 0 0 -.1 0 199)"/>
    <path style="fill:none;stroke-width:9.92219;stroke-linecap:round;stroke-linejoin:miter;stroke:gray;stroke-opacity:1;stroke-miterlimit:10" d="m909.727 592.969.703.703m90.937 91.445-.703-.703" transform="matrix(.1 0 0 -.1 0 199)"/>
    <path style="fill:none;stroke-width:9.92219;stroke-linecap:butt;stroke-linejoin:miter;stroke:gray;stroke-opacity:1;stroke-miterlimit:10" d="m909.727 592.969 91.64 92.148" transform="matrix(.1 0 0 -.1 0 199)"/>
    <path style="fill:none;stroke-width:9.92219;stroke-linecap:round;stroke-linejoin:miter;stroke:gray;stroke-opacity:1;stroke-miterlimit:10" d="m1006.094 761.172-.586.82M850.586 963.945l.586-.82" transform="matrix(.1 0 0 -.1 0 199)"/>
    <path style="fill:none;stroke-width:9.92219;stroke-linecap:butt;stroke-linejoin:miter;stroke:gray;stroke-opacity:1;stroke-miterlimit:10" d="M1006.094 761.172 850.586 963.945" transform="matrix(.1 0 0 -.1 0 199)"/>
    <path style="fill:none;stroke-width:9.92219;stroke-linecap:round;stroke-linejoin:miter;stroke:gray;stroke-opacity:1;stroke-miterlimit:10" d="m818.828 1029.375-.234.938m-68.477 269.804.274-.976" transform="matrix(.1 0 0 -.1 0 199)"/>
    <path style="fill:none;stroke-width:9.92219;stroke-linecap:butt;stroke-linejoin:miter;stroke:gray;stroke-opacity:1;stroke-miterlimit:10" d="m818.828 1029.375-68.71 270.742" transform="matrix(.1 0 0 -.1 0 199)"/>
    <path style="fill:none;stroke-width:9.92219;stroke-linecap:round;stroke-linejoin:miter;stroke:gray;stroke-opacity:1;stroke-miterlimit:10" d="m752.422 1372.852.312.937m78.556 243.321-.313-.977" transform="matrix(.1 0 0 -.1 0 199)"/>
    <path style="fill:none;stroke-width:9.92219;stroke-linecap:butt;stroke-linejoin:miter;stroke:gray;stroke-opacity:1;stroke-miterlimit:10" d="m752.422 1372.852 78.867 244.257" transform="matrix(.1 0 0 -.1 0 199)"/>
    <path style="fill:none;stroke-width:9.92219;stroke-linecap:round;stroke-linejoin:miter;stroke:gray;stroke-opacity:1;stroke-miterlimit:10" d="m861.133 1683.633.508.86m98.203 166.367-.508-.9" transform="matrix(.1 0 0 -.1 0 199)"/>
    <path style="fill:none;stroke-width:9.92219;stroke-linecap:butt;stroke-linejoin:miter;stroke:gray;stroke-opacity:1;stroke-miterlimit:10" d="m861.133 1683.633 98.71 167.226" transform="matrix(.1 0 0 -.1 0 199)"/>
    <path style="fill:none;stroke-width:9.92219;stroke-linecap:round;stroke-linejoin:miter;stroke:gray;stroke-opacity:1;stroke-miterlimit:10" d="m24.57 1073.125-.742.664" transform="matrix(.1 0 0 -.1 0 199)"/>
    <path style="fill:none;stroke-width:9.92219;stroke-linecap:butt;stroke-linejoin:miter;stroke:gray;stroke-opacity:1;stroke-miterlimit:10" d="m-320.781 1366.875 345.351-293.75" transform="matrix(.1 0 0 -.1 0 199)"/>
    <path style="fill:none;stroke-width:9.92219;stroke-linecap:round;stroke-linejoin:miter;stroke:gray;stroke-opacity:1;stroke-miterlimit:10" d="m59.219 1002.89.039-1.015m30.078-584.648-.078 1.015" transform="matrix(.1 0 0 -.1 0 199)"/>
    <path style="fill:none;stroke-width:9.92219;stroke-linecap:butt;stroke-linejoin:miter;stroke:gray;stroke-opacity:1;stroke-miterlimit:10" d="m59.219 1002.89 30.117-585.663" transform="matrix(.1 0 0 -.1 0 199)"/>
    <path style="fill:none;stroke-width:9.92219;stroke-linecap:round;stroke-linejoin:miter;stroke:gray;stroke-opacity:1;stroke-miterlimit:10" d="m110.352 331.25.43-.937" transform="matrix(.1 0 0 -.1 0 199)"/>
    <path style="fill:none;stroke-width:9.92219;stroke-linecap:butt;stroke-linejoin:miter;stroke:gray;stroke-opacity:1;stroke-miterlimit:10" d="M110.352 331.25 277.695-30.547" transform="matrix(.1 0 0 -.1 0 199)"/>
    <path style="fill:none;stroke-width:9.92219;stroke-linecap:round;stroke-linejoin:miter;stroke:gray;stroke-opacity:1;stroke-miterlimit:10" d="m1383.086 54.414-.82-.547" transform="matrix(.1 0 0 -.1 0 199)"/>
    <path style="fill:none;stroke-width:9.92219;stroke-linecap:butt;stroke-linejoin:miter;stroke:gray;stroke-opacity:1;stroke-miterlimit:10" d="m779.18-332.54 603.906 386.954" transform="matrix(.1 0 0 -.1 0 199)"/>
    <path style="fill:none;stroke-width:9.92219;stroke-linecap:round;stroke-linejoin:miter;stroke:gray;stroke-opacity:1;stroke-miterlimit:10" d="m1442.54 111.64.546.82m369.687 535.274-.585-.82" transform="matrix(.1 0 0 -.1 0 199)"/>
    <path style="fill:none;stroke-width:9.92219;stroke-linecap:butt;stroke-linejoin:miter;stroke:gray;stroke-opacity:1;stroke-miterlimit:10" d="m1442.54 111.64 370.233 536.094" transform="matrix(.1 0 0 -.1 0 199)"/>
    <path style="fill:none;stroke-width:9.92219;stroke-linecap:round;stroke-linejoin:miter;stroke:gray;stroke-opacity:1;stroke-miterlimit:10" d="m1867.656 706.172.782.625" transform="matrix(.1 0 0 -.1 0 199)"/>
    <path style="fill:none;stroke-width:9.92219;stroke-linecap:butt;stroke-linejoin:miter;stroke:gray;stroke-opacity:1;stroke-miterlimit:10" d="m1867.656 706.172 254.14 201.367" transform="matrix(.1 0 0 -.1 0 199)"/>
    <use xlink:href="#D" x="20.04" y="13.8" style="fill:#b9b9b9;fill-opacity:1"/>
    <use xlink:href="#E" x="27.24" y="13.8" style="fill:#b9b9b9;fill-opacity:1"/>
    <use xlink:href="#F" x="32.76" y="13.8" style="fill:#b9b9b9;fill-opacity:1"/>
    <use xlink:href="#G" x="38.88" y="13.8" style="fill:#b9b9b9;fill-opacity:1"/>
    <use xlink:href="#E" x="45" y="13.8" style="fill:#b9b9b9;fill-opacity:1"/>
    <use xlink:href="#H" x="50.519" y="13.8" style="fill:#b9b9b9;fill-opacity:1"/>
    <use xlink:href="#I" x="56.639" y="13.8" style="fill:#b9b9b9;fill-opacity:1"/>
    <use xlink:href="#J" x="101.88" y="18.48" style="fill:#0043e9;fill-opacity:1"/>
    <use xlink:href="#K" x="106.8" y="18.48" style="fill:#0043e9;fill-opacity:1"/>
    <use xlink:href="#L" x="111.24" y="18.48" style="fill:#0043e9;fill-opacity:1"/>
    <use xlink:href="#M" x="113.04" y="18.48" style="fill:#0043e9;fill-opacity:1"/>
    <use xlink:href="#N" x="117.48" y="18.48" style="fill:#0043e9;fill-opacity:1"/>
    <use xlink:href="#O" x="120.239" y="18.48" style="fill:#0043e9;fill-opacity:1"/>
    <use xlink:href="#P" x="122.039" y="18.48" style="fill:#0043e9;fill-opacity:1"/>
    <use xlink:href="#Q" x="108.24" y="129.48" style="fill:#0043e9;fill-opacity:1"/>
    <use xlink:href="#R" x="78.36" y="150.24" style="fill:#0043e9;fill-opacity:1"/>
    <use xlink:href="#S" x=".6" y="171.6" style="fill:#0043e9;fill-opacity:1"/>
    <use xlink:href="#T" x="144.48" y="198.36" style="fill:#0043e9;fill-opacity:1"/>
    <use xlink:href="#U" x="65.52" y="67.56" style="fill:#0043e9;fill-opacity:1"/>
    <use xlink:href="#S" x="85.08" y="95.52" style="fill:#0043e9;fill-opacity:1"/>
    <use xlink:href="#V" x="86.52" y="42.96" style="fill:#0043e9;fill-opacity:1"/>
    <use xlink:href="#W" x="57.96" y="106.44" style="fill:#0043e9;fill-opacity:1"/>
    <use xlink:href="#X" x="9.48" y="95.76" style="fill:#0043e9;fill-opacity:1"/>
  </g>
</svg>
